<svg version="1.0" xmlns="http://www.w3.org/2000/svg"
 width="503.000000pt" height="1024.000000pt" viewBox="0 0 503.000000 1024.000000"
 preserveAspectRatio="xMidYMid meet">

<g transform="translate(0.000000,1024.000000) scale(0.100000,-0.100000)"
fill="currentcolor" stroke="none">
<path d="M960 10232 c0 -17 126 -232 203 -345 307 -455 736 -878 1439 -1423
305 -236 333 -260 399 -341 72 -90 111 -165 141 -270 18 -64 22 -102 22 -213
0 -146 -9 -200 -56 -355 -48 -159 -107 -295 -268 -613 -119 -234 -154 -313
-166 -372 -25 -118 -6 -235 48 -296 105 -120 277 -108 633 44 118 51 137 56
205 56 59 1 84 -4 117 -21 91 -49 140 -152 130 -273 -9 -111 -64 -218 -160
-314 -64 -64 -174 -140 -182 -126 -9 14 -25 12 -22 -2 1 -8 -6 -12 -17 -10
-11 2 -15 -1 -11 -7 3 -6 2 -11 -4 -11 -5 0 -13 5 -16 10 -4 7 -13 7 -26 0
-15 -9 -25 -7 -46 9 -29 24 -51 26 -87 10 -20 -9 -29 -9 -41 1 -13 11 -27 5
-92 -34 -52 -32 -80 -43 -87 -36 -14 14 -59 13 -74 -2 -26 -26 -10 -67 94
-234 58 -93 111 -172 118 -176 35 -23 91 11 84 52 -2 17 12 31 67 68 47 32 70
54 70 67 1 11 13 32 28 47 29 29 34 57 16 90 -9 16 -7 23 10 34 13 9 18 21 14
31 -5 12 -2 15 10 10 12 -4 17 -1 17 9 0 11 6 14 16 10 11 -4 14 -1 10 12 -4
12 7 25 41 47 68 43 176 147 219 212 20 31 48 88 62 127 45 131 20 276 -63
358 -60 59 -98 73 -195 73 -81 -1 -92 -4 -216 -57 -193 -83 -283 -109 -391
-115 -143 -9 -214 29 -244 128 -16 54 -13 188 6 244 9 28 87 192 174 365 159
317 209 433 255 590 43 147 50 201 50 350 1 120 -3 158 -22 223 -27 96 -65
172 -128 258 -62 83 -95 112 -344 305 -539 416 -848 689 -1123 989 -219 240
-421 514 -536 728 -29 53 -59 97 -67 97 -8 0 -14 -3 -14 -8z"/>
<path d="M2925 5528 c-11 -95 -10 -131 2 -135 15 -5 20 15 29 110 5 66 4 77
-9 77 -11 0 -17 -14 -22 -52z"/>
<path d="M2535 5480 c-8 -14 85 -160 103 -160 21 0 14 21 -29 86 -48 73 -64
90 -74 74z"/>
<path d="M2740 5474 c0 -35 24 -94 38 -94 11 0 13 8 7 37 -8 45 -22 73 -35 73
-6 0 -10 -7 -10 -16z"/>
<path d="M2445 5280 c-7 -11 74 -72 86 -64 17 10 9 23 -28 49 -41 28 -49 30
-58 15z"/>
<path d="M2290 5146 c0 -9 26 -22 68 -34 91 -28 107 -30 107 -13 0 9 -28 23
-75 38 -88 27 -100 28 -100 9z"/>
<path d="M2728 5040 c-43 -27 -78 -53 -78 -57 0 -5 7 -16 14 -26 13 -17 19
-15 91 30 43 26 80 53 82 60 5 13 -13 43 -26 43 -3 0 -41 -23 -83 -50z"/>
<path d="M2516 5018 c-9 -12 -13 -31 -11 -42 4 -17 -5 -27 -46 -51 -72 -42
-101 -89 -103 -166 -1 -45 -5 -64 -19 -74 -11 -8 -15 -19 -10 -30 5 -14 3 -17
-10 -12 -11 4 -17 1 -17 -8 0 -9 -6 -12 -17 -8 -12 5 -15 2 -10 -10 5 -13 -9
-27 -57 -57 -82 -52 -192 -168 -233 -246 -103 -193 -70 -417 74 -501 95 -56
180 -49 358 27 308 132 484 151 574 61 45 -45 61 -96 61 -193 0 -98 -17 -151
-102 -315 -245 -476 -289 -573 -343 -754 -112 -373 -51 -679 179 -902 78 -76
138 -127 446 -384 416 -346 581 -601 597 -918 7 -130 -13 -223 -71 -351 -20
-42 -34 -79 -32 -82 22 -22 81 95 118 232 38 144 16 351 -56 517 -99 227 -261
405 -686 749 -91 73 -217 186 -281 249 -99 100 -121 128 -156 201 -62 126 -76
192 -77 345 -1 259 77 488 326 957 147 277 169 335 170 447 1 116 -19 177 -76
229 -98 90 -259 81 -531 -30 -197 -81 -221 -88 -285 -88 -91 0 -160 42 -201
123 -77 149 -25 353 130 506 77 77 174 140 186 121 9 -15 25 -12 25 5 0 9 6
12 17 8 11 -4 14 -3 9 5 -4 7 -3 12 3 12 5 0 13 -4 16 -10 4 -6 16 -4 31 6 22
15 27 15 58 0 57 -27 123 -21 187 18 49 29 58 32 74 20 10 -8 27 -14 37 -14
21 0 58 34 58 53 0 14 -190 327 -218 360 -21 24 -67 22 -86 -5z"/>
<path d="M2848 4852 c-43 -26 -77 -51 -77 -57 0 -5 6 -18 13 -28 13 -17 19
-15 95 34 81 51 92 64 69 87 -16 16 -13 17 -100 -36z"/>
<path d="M3286 4852 c-9 -15 14 -28 91 -51 84 -25 93 -26 93 -7 0 12 -30 24
-162 62 -9 3 -19 1 -22 -4z"/>
<path d="M3226 4723 c-12 -13 -5 -23 34 -49 28 -19 44 -24 51 -17 8 8 1 18
-23 35 -45 34 -54 38 -62 31z"/>
<path d="M3110 4608 c0 -14 76 -132 95 -148 10 -8 15 -8 20 0 8 14 -85 160
-102 160 -7 0 -13 -5 -13 -12z"/>
<path d="M2970 4540 c0 -29 27 -90 39 -90 15 0 14 35 -3 75 -16 39 -36 46 -36
15z"/>
<path d="M2817 4543 c-2 -4 -8 -47 -12 -95 -6 -75 -5 -88 8 -88 14 0 25 56 31
159 1 23 -18 40 -27 24z"/>
</g>
</svg>
